<svg width="16" height="16" viewBox="0 0 16 16" fill="none" xmlns="http://www.w3.org/2000/svg">
<g clip-path="url(#clip0_0_3)">
<path d="M13.888 2.24467L5.77867 0.0720008C5.241 -0.0717895 4.66824 0.00374178 4.18622 0.282C3.70421 0.560259 3.35237 1.01848 3.20801 1.556L0.628672 11.1847C0.484882 11.7223 0.560413 12.2951 0.838671 12.7771C1.11693 13.2591 1.57515 13.611 2.11267 13.7553L10.2213 15.928C10.7589 16.0716 11.3315 15.996 11.8134 15.7177C12.2952 15.4395 12.647 14.9814 12.7913 14.444L15.3713 4.81533C15.5151 4.27766 15.4396 3.7049 15.1613 3.22289C14.8831 2.74087 14.4249 2.38903 13.8873 2.24467M4.22134 1.82733C4.257 1.69421 4.31854 1.56942 4.40244 1.46008C4.48634 1.35074 4.59095 1.259 4.71031 1.19009C4.82967 1.12119 4.96143 1.07648 5.09807 1.0585C5.23471 1.04053 5.37356 1.04964 5.50667 1.08533L13.6153 3.25867C13.884 3.3307 14.1132 3.50649 14.2523 3.74739C14.3914 3.98829 14.4292 4.27458 14.3573 4.54333L11.7773 14.1727C11.7417 14.3058 11.6801 14.4306 11.5962 14.5399C11.5123 14.6493 11.4077 14.741 11.2884 14.8099C11.169 14.8788 11.0372 14.9235 10.9006 14.9415C10.764 14.9595 10.6251 14.9504 10.492 14.9147L2.38334 12.7413C2.11463 12.6693 1.88552 12.4935 1.74638 12.2526C1.60724 12.0117 1.56946 11.7254 1.64134 11.4567L4.22134 1.82733ZM5.97734 3.38467C5.91021 3.36496 5.83982 3.35887 5.77031 3.36676C5.7008 3.37466 5.63356 3.39637 5.57257 3.43063C5.51157 3.46489 5.45804 3.51101 5.41513 3.56626C5.37222 3.62151 5.34079 3.68479 5.3227 3.75237C5.3046 3.81995 5.3002 3.89047 5.30976 3.95977C5.31932 4.02907 5.34265 4.09577 5.37836 4.15592C5.41408 4.21608 5.46146 4.26849 5.51773 4.31006C5.574 4.35163 5.63801 4.38153 5.70601 4.398L11.7873 6.02733C11.8545 6.04705 11.9249 6.05313 11.9944 6.04524C12.0639 6.03735 12.1311 6.01563 12.1921 5.98137C12.2531 5.94711 12.3066 5.901 12.3495 5.84574C12.3925 5.79049 12.4239 5.72721 12.442 5.65963C12.4601 5.59205 12.4645 5.52153 12.4549 5.45223C12.4454 5.38293 12.422 5.31624 12.3863 5.25608C12.3506 5.19592 12.3032 5.14352 12.2469 5.10194C12.1907 5.06037 12.1267 5.03047 12.0587 5.014L5.97734 3.38467ZM4.65667 6.28933C4.69262 6.15499 4.78043 6.04042 4.90082 5.97079C5.0212 5.90116 5.1643 5.88217 5.29867 5.918L11.3807 7.548C11.5131 7.58579 11.6254 7.67414 11.6932 7.79398C11.7611 7.91381 11.7791 8.05553 11.7434 8.18855C11.7077 8.32156 11.6212 8.4352 11.5024 8.50495C11.3836 8.57469 11.2422 8.59494 11.1087 8.56133L5.02734 6.932C4.89297 6.89592 4.77844 6.80794 4.70893 6.68742C4.63942 6.5669 4.62062 6.42371 4.65667 6.28933ZM4.62001 8.452C4.48688 8.41976 4.34643 8.44085 4.22866 8.51078C4.11088 8.5807 4.02512 8.69391 3.98969 8.82622C3.95426 8.95853 3.97198 9.09944 4.03906 9.21887C4.10613 9.33829 4.21725 9.42674 4.34867 9.46533L7.89534 10.4167C8.0289 10.4503 8.17031 10.43 8.28907 10.3603C8.40783 10.2905 8.4944 10.1769 8.5301 10.0439C8.56581 9.91087 8.54778 9.76915 8.47991 9.64931C8.41204 9.52947 8.29977 9.44112 8.16734 9.40333L4.62001 8.452Z" fill="white"/>
</g>
<defs>
<clipPath id="clip0_0_3">
<rect width="16" height="16" fill="white"/>
</clipPath>
</defs>
</svg>
