<svg width="16" height="16" viewBox="0 0 16 16" fill="none" xmlns="http://www.w3.org/2000/svg">
<path d="M3.71398 5.25799C3.52298 3.99999 4.40998 2.87 5.76498 2.456C6.00544 2.38297 6.26467 2.40413 6.49011 2.51518C6.71555 2.62623 6.89032 2.81885 6.97898 3.05399L7.41398 4.214C7.48401 4.40061 7.49667 4.60389 7.45034 4.79775C7.40401 4.99161 7.30081 5.16721 7.15398 5.302L5.85998 6.487C5.79611 6.54547 5.74853 6.61953 5.72189 6.70191C5.69524 6.7843 5.69045 6.8722 5.70798 6.957L5.71998 7.009L5.75098 7.139C5.91231 7.77051 6.15749 8.37757 6.47998 8.944C6.8321 9.54541 7.26853 10.0933 7.77598 10.571L7.81598 10.607C7.88058 10.6643 7.95893 10.704 8.04341 10.722C8.12788 10.7401 8.21558 10.7359 8.29798 10.71L9.97098 10.183C10.1611 10.1233 10.3647 10.1218 10.5557 10.1786C10.7468 10.2354 10.9164 10.3481 11.043 10.502L11.835 11.463C12.165 11.863 12.125 12.451 11.746 12.804C10.709 13.771 9.28298 13.969 8.29098 13.172C7.07449 12.1917 6.04933 10.9953 5.26698 9.64299C4.47697 8.29246 3.95069 6.80461 3.71398 5.25799ZM6.75598 7.02299L7.82798 6.039C8.12182 5.76953 8.32841 5.4184 8.42125 5.03067C8.51408 4.64294 8.48891 4.23632 8.34898 3.86299L7.91498 2.703C7.73693 2.22977 7.38542 1.84206 6.93186 1.61862C6.47829 1.39518 5.95668 1.35277 5.47298 1.5C3.78998 2.01499 2.43898 3.52399 2.72498 5.40899C2.92498 6.72499 3.38598 8.399 4.40298 10.147C5.24709 11.6051 6.35293 12.895 7.66498 13.952C9.15298 15.147 11.139 14.739 12.429 13.537C12.7981 13.1933 13.0221 12.7217 13.0554 12.2185C13.0887 11.7152 12.9286 11.2183 12.608 10.829L11.816 9.86699C11.5626 9.55948 11.2232 9.33464 10.8412 9.22133C10.4592 9.10801 10.052 9.11138 9.67198 9.231L8.28298 9.668C7.92432 9.29825 7.61018 8.88779 7.34698 8.44499C7.09299 7.99721 6.89485 7.51999 6.75698 7.024" fill="white"/>
</svg>
