<svg width="314" height="338" viewBox="0 0 314 338" fill="none" xmlns="http://www.w3.org/2000/svg">
<path fill-rule="evenodd" clip-rule="evenodd" d="M56.5919 12.5897L202.562 125.881L202.478 125.712C218.473 137.676 226.701 150.358 228.506 163.039H0.000861822V55.4123C-0.167064 -1.99444 24.2242 -12.0132 56.5919 12.5897ZM256.675 12.5897L164.693 84.1156L211.377 120.301C229.765 134.082 238.875 148.793 240.26 163.251H313.14V55.6236C313.14 -1.7832 288.959 -11.8019 256.549 12.801L256.675 12.5897ZM84.6784 174.495H313.1L313.268 282.588C313.436 339.994 289.044 350.013 256.677 325.41L110.749 212.076C94.67 199.859 86.3996 187.177 84.6784 174.495ZM71.1167 174.538C72.4181 189.08 81.5281 203.875 100.042 217.783L147.649 254.687L56.5911 325.241C24.1814 350.055 0 339.825 0 282.418V174.538H71.1167Z" fill="#009F9F"/>
</svg>
