<svg width="24" height="24" viewBox="0 0 24 24" fill="none" xmlns="http://www.w3.org/2000/svg">
<g clip-path="url(#clip0_149_9487)">
<path d="M19.6721 0H4.32787C1.93765 0 0 1.93765 0 4.32787V19.6721C0 22.0623 1.93765 24 4.32787 24H19.6721C22.0623 24 24 22.0623 24 19.6721V4.32787C24 1.93765 22.0623 0 19.6721 0Z" fill="url(#paint0_linear_149_9487)"/>
<path d="M9.84469 13.8768C9.13296 13.348 8.7824 12.7834 8.73637 12.2278H6.00745V16.3377C6.00745 18.5257 6.93637 18.9073 8.17846 17.9697L11.6801 15.2817L9.84469 13.8768Z" fill="white"/>
<path d="M18.0208 12.2282H9.25488C9.31724 12.5219 9.43806 12.8001 9.61016 13.0461C9.78225 13.2921 10.0021 13.501 10.2566 13.6603L15.8494 17.9685C17.0919 18.9057 18.0271 18.5245 18.0204 16.3365L18.0208 12.2282Z" fill="white"/>
<path d="M15.8562 6.06573L12.3258 8.77734L14.1171 10.1544C14.4066 10.334 14.6549 10.5726 14.8459 10.8547C15.0369 11.1368 15.1662 11.456 15.2255 11.7915H18.0228V7.69104C18.0228 5.50311 17.0939 5.12147 15.8518 6.05904" fill="white"/>
<path d="M13.7783 10.3759L8.18595 6.06573C6.94345 5.12855 6.00824 5.5098 6.01493 7.69773V11.7994H14.7855C14.7217 11.5076 14.6003 11.2315 14.4286 10.9871C14.2569 10.7427 14.0383 10.5349 13.7854 10.3759" fill="white"/>
</g>
<defs>
<linearGradient id="paint0_linear_149_9487" x1="12" y1="-1.08" x2="12" y2="43.08" gradientUnits="userSpaceOnUse">
<stop stop-color="#50498A"/>
<stop offset="1" stop-color="#1E1948"/>
</linearGradient>
<clipPath id="clip0_149_9487">
<rect width="24" height="24" fill="white"/>
</clipPath>
</defs>
</svg>
