<svg width="16" height="16" viewBox="0 0 16 16" fill="none" xmlns="http://www.w3.org/2000/svg">
<g clip-path="url(#clip0_149_9597)">
<path d="M8.0001 0C3.58307 0 0.00134277 3.66765 0.00134277 8.19207C0.00134277 11.8115 2.29322 14.8823 5.47139 15.9655C5.87114 16.0413 6.01793 15.7878 6.01793 15.5714C6.01793 15.3761 6.01043 14.7308 6.00705 14.0463C3.78179 14.5418 3.31224 13.0797 3.31224 13.0797C2.94836 12.1328 2.42407 11.881 2.42407 11.881C1.69838 11.3725 2.47881 11.383 2.47881 11.383C3.282 11.4408 3.70493 12.2272 3.70493 12.2272C4.41837 13.4796 5.57619 13.1175 6.03261 12.9082C6.10441 12.3788 6.31169 12.0173 6.54047 11.8127C4.76382 11.6056 2.89618 10.9032 2.89618 7.76422C2.89618 6.86982 3.20863 6.13901 3.7203 5.56531C3.63725 5.35898 3.36348 4.52582 3.79779 3.39738C3.79779 3.39738 4.46949 3.17722 5.99805 4.23712C6.63608 4.05562 7.32034 3.96461 8.0001 3.96147C8.67987 3.96461 9.36469 4.05555 10.0039 4.23712C11.5306 3.17728 12.2014 3.39744 12.2014 3.39744C12.6367 4.52576 12.3628 5.35904 12.2798 5.56531C12.7926 6.13901 13.103 6.86982 13.103 7.76422C13.103 10.9107 11.2318 11.6035 9.45062 11.8063C9.73751 12.0605 9.99315 12.559 9.99315 13.3233C9.99315 14.4194 9.9839 15.3016 9.9839 15.5714C9.9839 15.7894 10.1279 16.0449 10.5333 15.9644C13.7097 14.88 15.9987 11.8104 15.9987 8.19213C15.9987 3.66765 12.4175 0 8.0001 0ZM2.99717 11.6698C2.97955 11.7105 2.91699 11.7227 2.86006 11.6947C2.80201 11.668 2.76945 11.6125 2.7882 11.5717C2.80545 11.5298 2.86813 11.5181 2.92599 11.5462C2.98411 11.5729 3.01723 11.6289 2.99717 11.6698ZM3.3906 12.0293C3.35248 12.0655 3.27787 12.0487 3.22726 11.9915C3.17495 11.9344 3.16514 11.858 3.20382 11.8212C3.24319 11.785 3.31549 11.802 3.36792 11.8591C3.42029 11.9169 3.43041 11.9927 3.3906 12.0293ZM3.66056 12.4893C3.61151 12.5242 3.53139 12.4915 3.48184 12.4187C3.43285 12.3459 3.43285 12.2585 3.4829 12.2235C3.53258 12.1885 3.61151 12.22 3.66168 12.2923C3.71055 12.3663 3.71055 12.4537 3.6605 12.4894M4.11692 13.0222C4.07312 13.0717 3.9797 13.0584 3.91133 12.9908C3.84141 12.9248 3.82197 12.8311 3.86596 12.7816C3.91033 12.7319 4.00425 12.7459 4.07312 12.8129C4.14248 12.8788 4.16373 12.9732 4.11692 13.0222ZM4.70695 13.202C4.68758 13.2662 4.59759 13.2954 4.50705 13.2682C4.41656 13.2401 4.35738 13.1649 4.37563 13.1001C4.39444 13.0355 4.4848 13.0051 4.57604 13.0343C4.6664 13.0622 4.72576 13.1368 4.70695 13.2021M5.37834 13.2785C5.38059 13.346 5.30379 13.402 5.20868 13.4033C5.11307 13.4054 5.03565 13.3508 5.03459 13.2842C5.03459 13.2161 5.1097 13.1606 5.20537 13.1589C5.30048 13.157 5.37834 13.2113 5.37834 13.2785ZM6.03792 13.2525C6.0493 13.3185 5.98324 13.3862 5.88876 13.4042C5.79596 13.4216 5.70998 13.3809 5.69817 13.3155C5.68667 13.2479 5.75397 13.1802 5.84664 13.1628C5.94125 13.1459 6.02586 13.1855 6.03792 13.2525Z" fill="#161614"/>
</g>
<defs>
<clipPath id="clip0_149_9597">
<rect width="16" height="16" fill="white"/>
</clipPath>
</defs>
</svg>
