<svg width="84" height="20" viewBox="0 0 84 20" fill="none" xmlns="http://www.w3.org/2000/svg">
<path d="M0 16.2988C0 19.6171 1.40561 20.1935 3.28661 18.7721L11.7665 12.2388C12.8381 11.4402 13.3083 10.5822 13.3083 9.75H0V16.2988Z" fill="#009F9F"/>
<path d="M18.1984 16.2988C18.1984 19.6171 16.7928 20.1935 14.9118 18.7721L6.43188 12.2388C5.36033 11.4402 4.89008 10.5822 4.89008 9.75H18.1779L18.1984 16.2988Z" fill="#EF4923"/>
<path d="M18.1984 3.2012C18.1984 -0.117141 16.7928 -0.693458 14.9118 0.727947L6.43188 7.26124C5.36033 8.05982 4.89008 8.91783 4.89008 9.75H18.1779L18.1984 3.2012Z" fill="#F8971D"/>
<path d="M0 3.2012C0 -0.117141 1.40561 -0.693458 3.28661 0.727947L11.7665 7.26124C12.8381 8.05982 13.3083 8.91783 13.3083 9.75H0V3.2012Z" fill="#082F4D"/>
<path d="M23.6667 2.74376C23.6667 1.76687 23.9031 1.52911 24.8719 1.52911H25.2804C26.2492 1.52911 26.4856 1.76687 26.4856 2.74376V6.84258C27.1743 6.08278 28.3589 5.60725 29.7799 5.60725C31.5016 5.60725 33.4391 6.41099 33.4391 9.33909V15.5002C33.4391 16.4771 33.2027 16.7149 32.234 16.7149H31.8254C30.8566 16.7149 30.6202 16.4771 30.6202 15.5002V9.83787C30.6202 8.62321 29.9315 8.28725 28.8214 8.28725C27.5726 8.28725 26.5087 8.78603 26.5087 10.913V15.5132C26.5087 16.49 26.2723 16.7278 25.3036 16.7278H24.895C23.9262 16.7278 23.6898 16.49 23.6898 15.5132L23.6667 2.74376Z" fill="#082F4D"/>
<path d="M38.3729 12.9675C38.3729 14.0736 38.6967 14.681 40.4621 14.681C42.2274 14.681 42.5178 14.0736 42.5178 12.9675V7.45765C42.5178 6.48075 42.7542 6.24299 43.723 6.24299H44.1315C45.1003 6.24299 45.3367 6.48075 45.3367 7.45765V12.9675C45.3367 15.875 43.872 17.361 40.4723 17.361C37.2217 17.361 35.5643 15.8103 35.5643 12.9675V7.45765C35.5643 6.48075 35.8007 6.24299 36.7694 6.24299H37.178C38.1468 6.24299 38.3832 6.48075 38.3832 7.45765L38.3729 12.9675Z" fill="#082F4D"/>
<path d="M54.8856 10.7967C54.8856 9.40886 54.5207 8.64906 52.5729 8.64906C50.6251 8.64906 50.2268 9.40886 50.2268 10.7967V12.5308C50.2268 13.9186 50.6354 14.6784 52.5729 14.6784C54.5541 14.6784 54.8856 13.9186 54.8856 12.5308V10.7967ZM47.4336 3.1185C47.4336 2.14161 47.67 1.90385 48.6388 1.90385H49.0268C49.9955 1.90385 50.232 2.14161 50.232 3.1185V7.21732C50.7921 6.45751 51.6967 5.98199 53.1819 5.98199C56.1756 5.98199 57.702 7.76004 57.702 10.8639V12.5928C57.702 15.999 55.785 17.3429 52.5626 17.3429C49.7206 17.3429 47.4387 15.9964 47.4387 12.5928L47.4336 3.1185Z" fill="#082F4D"/>
<path d="M65.4598 14.5285C64.9622 14.6194 64.4571 14.6626 63.9514 14.6577C63.1548 14.6577 62.6255 14.3088 62.5972 13.288C62.6091 13.2328 62.6151 13.1765 62.6152 13.12V8.91008H65.0487C66.0174 8.91008 66.2538 8.67232 66.2538 7.69543V7.45766C66.2538 6.48077 66.0174 6.243 65.0487 6.243H62.6152V4.61485C62.6152 3.63796 62.3788 3.40019 61.41 3.40019H61.0143C60.0455 3.40019 59.8091 3.63796 59.8091 4.61485V6.10603L59.7886 6.24042V13.1821C59.7886 13.3802 59.7954 13.5697 59.8091 13.7506C59.8052 13.9503 59.8294 14.1496 59.8811 14.3424C60.2742 16.5934 61.8751 17.3248 63.9437 17.3248C64.4497 17.3376 64.9556 17.2943 65.4521 17.1956C66.4003 17.0018 66.6367 16.6322 66.6367 15.645V15.4072C66.6367 14.4303 66.4003 14.345 65.4521 14.5182" fill="#082F4D"/>
<path d="M70.6069 10.4064H74.8494V10.0808C74.8494 8.99795 74.1376 8.43197 72.7191 8.43197C71.3007 8.43197 70.6094 8.99537 70.6094 10.0808L70.6069 10.4064ZM77.4756 11.5125C77.3471 12.5101 77.067 12.7039 76.0751 12.7039H70.6069V13.0296C70.6069 14.1564 71.424 14.6784 73.4335 14.6784C74.3099 14.6649 75.1828 14.5636 76.0392 14.376C76.9874 14.1822 77.1801 14.4406 77.1801 15.4098V15.6475C77.1801 16.6244 76.9874 16.8183 76.0392 17.0586C75.1773 17.2528 74.2962 17.3473 73.413 17.3403C69.6021 17.3403 67.7931 15.9525 67.7931 12.5902V10.8535C67.7931 8.05465 69.0625 5.97165 72.8091 5.97165C75.9518 5.97165 77.5244 7.57655 77.5244 10.6571C77.5264 10.9394 77.5118 11.2216 77.4807 11.5022" fill="#082F4D"/>
<path d="M79.4131 3.1185C79.4131 2.14161 79.6495 1.90385 80.6183 1.90385H81.0063C81.9751 1.90385 82.2115 2.14161 82.2115 3.1185V13.1846C82.2115 14.3114 82.5121 14.6371 83.1597 14.6371H83.2676C83.8278 14.6371 84 14.7663 84 15.6346V16.0481C84 16.9165 83.8278 17.1542 83.2676 17.2628C83.0553 17.304 82.8386 17.3187 82.6227 17.3067C80.793 17.3067 79.4157 16.2859 79.4157 13.8126L79.4131 3.1185Z" fill="#082F4D"/>
</svg>
