<svg width="24" height="24" viewBox="0 0 24 24" fill="none" xmlns="http://www.w3.org/2000/svg">
<path d="M12 14L11 15M13.75 18.25L12.5 19.67M17.775 5.65401C14.7963 6.27979 12.0641 7.75899 9.91179 9.91114C7.75946 12.0633 6.28003 14.7954 5.65401 17.774M18.8 9.30001C17.7789 9.57848 16.9103 10.2512 16.3852 11.1701C15.8601 12.089 15.7215 13.1789 16 14.2C16.2785 15.2211 16.9512 16.0897 17.8701 16.6148C18.789 17.1399 19.8789 17.2785 20.9 17M21.964 20.732C22.0117 20.9028 22.0131 21.0831 21.9681 21.2546C21.9231 21.4261 21.8333 21.5826 21.7079 21.7079C21.5826 21.8333 21.4261 21.9231 21.2546 21.9681C21.0831 22.0131 20.9028 22.0117 20.732 21.964L2.73201 16.964C2.60546 16.9288 2.4871 16.8689 2.38368 16.788C2.28026 16.707 2.19381 16.6064 2.12927 16.492C2.06473 16.3776 2.02337 16.2516 2.00753 16.1212C1.9917 15.9908 2.00172 15.8585 2.03701 15.732C2.94525 12.4622 4.68359 9.48285 7.08322 7.08322C9.48285 4.68359 12.4622 2.94525 15.732 2.03701C15.8585 2.00172 15.9908 1.9917 16.1212 2.00753C16.2516 2.02337 16.3776 2.06473 16.492 2.12927C16.6064 2.19381 16.707 2.28026 16.788 2.38368C16.8689 2.4871 16.9288 2.60546 16.964 2.73201L21.964 20.732Z" stroke="#FF1803" stroke-width="2" stroke-linecap="round" stroke-linejoin="round"/>
</svg>
