<svg width="205" height="205" viewBox="0 0 205 205" fill="none" xmlns="http://www.w3.org/2000/svg">
<g opacity="0.08">
<path d="M102.5 119.583L93.9584 128.125M117.448 155.885L106.771 168.015M151.828 48.2946C126.385 53.6398 103.048 66.2746 84.6632 84.6576C66.2787 103.041 53.642 126.377 48.2947 151.82M160.583 79.4375C151.862 81.8162 144.442 87.5621 139.957 95.4113C135.472 103.26 134.288 112.57 136.667 121.292C139.045 130.013 144.791 137.433 152.641 141.918C160.49 146.404 169.799 147.587 178.521 145.208M187.609 177.086C188.016 178.544 188.028 180.085 187.644 181.55C187.26 183.015 186.493 184.351 185.422 185.422C184.351 186.493 183.015 187.259 181.55 187.644C180.085 188.028 178.545 188.016 177.086 187.609L23.3359 144.901C22.255 144.6 21.244 144.089 20.3606 143.397C19.4773 142.705 18.7389 141.846 18.1876 140.869C17.6363 139.892 17.2829 138.816 17.1477 137.702C17.0125 136.588 17.098 135.458 17.3995 134.378C25.1574 106.448 40.0057 80.9993 60.5025 60.5025C80.9994 40.0056 106.448 25.1573 134.378 17.3994C135.458 17.098 136.588 17.0124 137.702 17.1477C138.816 17.2829 139.892 17.6362 140.869 18.1875C141.846 18.7388 142.705 19.4772 143.397 20.3606C144.089 21.2439 144.6 22.255 144.901 23.3359L187.609 177.086Z" stroke="#C42348" stroke-width="20" stroke-linecap="round" stroke-linejoin="round"/>
</g>
</svg>
