<svg width="40" height="36" viewBox="0 0 40 36" fill="none" xmlns="http://www.w3.org/2000/svg">
<mask id="path-1-inside-1_149_9592" fill="white">
<path d="M0 0H40V36H0V0Z"/>
</mask>
<path d="M1 36V0H-1V36H1Z" fill="#F0F0F0" mask="url(#path-1-inside-1_149_9592)"/>
<path d="M31.848 18.7653C32 18.3982 32 17.9316 32 17C32 16.0684 32 15.6018 31.848 15.2347C31.7475 14.9919 31.6001 14.7714 31.4144 14.5856C31.2286 14.3999 31.0081 14.2525 30.7653 14.152C30.3982 14 29.9316 14 29 14H23.2C22.08 14 21.52 14 21.0924 14.2178C20.7158 14.4096 20.4096 14.7158 20.2178 15.0924C20 15.5191 20 16.0791 20 17.2V23C20 23.9316 20 24.3982 20.152 24.7653C20.3556 25.2551 20.7449 25.6453 21.2347 25.848C21.6018 26 22.0684 26 23 26C23.9316 26 24.3982 26 24.7653 25.848M31.848 18.7653C31.7475 19.0081 31.6001 19.2286 31.4144 19.4144C31.2286 19.6001 31.0081 19.7475 30.7653 19.848C30.3982 20 29.9316 20 29 20C28.0684 20 27.6018 20 27.2347 20.152C26.9919 20.2525 26.7714 20.3999 26.5856 20.5856C26.3999 20.7714 26.2525 20.9919 26.152 21.2347C26 21.6018 26 22.0684 26 23C26 23.9316 26 24.3982 25.848 24.7653C25.7475 25.0081 25.6001 25.2286 25.4144 25.4144C25.2286 25.6001 25.0081 25.7475 24.7653 25.848M31.848 18.7653C31.3698 20.4141 30.4902 21.9186 29.288 23.1441C28.0858 24.3696 26.5984 25.2779 24.9591 25.7876L24.7653 25.848M28 14V13.2C28 12.08 28 11.52 27.7822 11.0924C27.5906 10.7159 27.2848 10.4097 26.9084 10.2178C26.48 10 25.92 10 24.8 10H19.2C18.08 10 17.52 10 17.0924 10.2178C16.7158 10.4096 16.4096 10.7158 16.2178 11.0924C16 11.5191 16 12.0791 16 13.2V18.8C16 19.92 16 20.48 16.2178 20.9076C16.4098 21.2844 16.7156 21.5902 17.0924 21.7822C17.5191 22 18.08 22 19.2009 22H20" stroke="#525252" stroke-width="1.5" stroke-linecap="round" stroke-linejoin="round"/>
</svg>
