<svg width="62" height="62" viewBox="0 0 62 62" fill="none" xmlns="http://www.w3.org/2000/svg">
<path d="M31.437 0.813354C48.3471 0.813354 61.9973 14.4636 61.9973 31.3737C61.9973 48.2837 48.3471 61.934 31.437 61.934C14.527 61.934 0.876709 48.2837 0.876709 31.3737C0.876709 14.4636 14.527 0.813354 31.437 0.813354Z" fill="#FFDD67"/>
<path d="M35.3081 19.6588C33.0671 20.7794 29.7054 20.7794 27.4643 19.6588C25.1214 18.4364 22.1672 17.6215 18.6018 17.3159C15.1383 17.0103 7.90573 17.0103 4.34036 18.3346C3.93289 18.4364 3.52542 18.6402 3.11795 18.8439C3.01608 18.9458 2.91421 19.0476 2.91421 19.4551V19.9644C2.91421 20.9831 2.81234 20.5756 3.52542 20.9831C4.95156 21.7981 5.76651 23.9373 6.17398 26.8914C6.78518 31.1699 8.92441 33.9203 12.286 35.1427C15.4439 36.3651 19.0093 36.2633 22.1672 35.0409C23.899 34.3278 25.427 33.3091 26.6494 31.4755C28.7886 28.4195 28.0755 26.484 29.1961 23.8354C30.1129 21.4925 32.7615 21.4925 33.7801 23.8354C34.9007 26.484 34.1876 28.4195 36.3268 31.4755C37.5492 33.2072 39.0773 34.3278 40.809 35.0409C43.9669 36.2633 47.5323 36.3651 50.6902 35.1427C54.1537 33.8184 56.191 31.1699 56.8022 26.8914C57.2097 23.9373 58.0247 21.7981 59.4508 20.9831C60.1639 20.5756 60.062 20.9831 60.062 19.9644V19.4551C60.062 19.0476 60.062 18.9458 59.7564 18.8439C59.3489 18.6402 58.9415 18.4364 58.534 18.3346C54.8667 17.0103 47.6341 17.0103 44.2725 17.3159C40.7071 17.6215 37.753 18.4364 35.3081 19.6588Z" fill="#494949"/>
<path d="M44.2726 41.866C36.0213 47.6725 26.8532 47.5706 18.6019 41.866C17.5832 41.1529 16.7683 42.3754 17.3795 43.4959C19.9262 47.5706 24.9177 51.3397 31.4372 51.3397C37.9568 51.3397 42.9483 47.6725 45.495 43.4959C46.1062 42.3754 45.2912 41.1529 44.2726 41.866Z" fill="#664E27"/>
</svg>
